<svg height="512pt" viewBox="-48 0 512 512" width="512pt" xmlns="http://www.w3.org/2000/svg"><path d="m64 32h288c35.347656 0 64 28.652344 64 64v352c0 35.347656-28.652344 64-64 64h-288c-35.347656 0-64-28.652344-64-64v-352c0-35.347656 28.652344-64 64-64zm0 0" fill="#bfc9d1"/><path d="m64 64h288c17.671875 0 32 14.328125 32 32v352c0 17.671875-14.328125 32-32 32h-288c-17.671875 0-32-14.328125-32-32v-352c0-17.671875 14.328125-32 32-32zm0 0" fill="#e4edfb"/><path d="m256 96h-96c-17.671875 0-32-14.328125-32-32v-64h160v64c0 17.671875-14.328125 32-32 32zm0 0" fill="#ffda6b"/><path d="m256 64h-96c-17.671875 0-32-14.328125-32-32v32c0 17.671875 14.328125 32 32 32h96c17.671875 0 32-14.328125 32-32v-32c0 17.671875-14.328125 32-32 32zm0 0" fill="#f5cd00"/><path d="m137.886719 320h-57.886719c-8.835938 0-16-7.164062-16-16s7.164062-16 16-16h38.113281l32-64h46.398438l16-48h48l16-48h59.488281c8.835938 0 16 7.164062 16 16s-7.164062 16-16 16h-36.464844l-16 48h-48l-16 48h-49.597656zm0 0" fill="#ff7761"/><g fill="#c8d5e8"><path d="m128 416h32v32h-32zm0 0"/><path d="m192 416h32v32h-32zm0 0"/><path d="m256 416h32v32h-32zm0 0"/><path d="m320 416h32v32h-32zm0 0"/><path d="m80 352c8.835938 0 16 7.164062 16 16v64c0 8.835938-7.164062 16-16 16s-16-7.164062-16-16v-64c0-8.835938 7.164062-16 16-16zm0 0"/><path d="m128 352h32v32h-32zm0 0"/><path d="m208 288c8.835938 0 16 7.164062 16 16v64c0 8.835938-7.164062 16-16 16s-16-7.164062-16-16v-64c0-8.835938 7.164062-16 16-16zm0 0"/><path d="m272 240c8.835938 0 16 7.164062 16 16v112c0 8.835938-7.164062 16-16 16s-16-7.164062-16-16v-112c0-8.835938 7.164062-16 16-16zm0 0"/><path d="m336 192c8.835938 0 16 7.164062 16 16v160c0 8.835938-7.164062 16-16 16s-16-7.164062-16-16v-160c0-8.835938 7.164062-16 16-16zm0 0"/></g></svg>