<svg viewBox="0 -1 512 512" xmlns="http://www.w3.org/2000/svg"><path d="m156.480469 354.949219h-30.476563v.679687c0 13.089844-10.613281 23.703125-23.703125 23.703125-13.09375 0-23.703125-10.613281-23.703125-23.703125v-.679687h-30.476562c-22.441406 0-40.636719 18.191406-40.636719 40.636719v114.917968h189.628906v-114.917968c0-22.445313-18.191406-40.636719-40.632812-40.636719zm0 0" fill="#48c8ef"/><path d="m463.878906 354.949219h-30.476562v.679687c0 13.089844-10.609375 23.703125-23.703125 23.703125-13.089844 0-23.703125-10.613281-23.703125-23.703125v-.679687h-30.476563c-22.441406 0-40.632812 18.191406-40.632812 40.636719v114.917968h189.628906v-114.917968c0-22.445313-18.195313-40.636719-40.636719-40.636719zm0 0" fill="#ffcb5a"/><path d="m126.003906 318.378906v37.246094c0 13.09375-10.609375 23.703125-23.703125 23.703125s-23.703125-10.609375-23.703125-23.703125v-37.246094zm0 0" fill="#ecce93"/><path d="m102.300781 213.402344c-26.183593 0-47.40625 21.226562-47.40625 47.410156v28.445312l12.183594-22.535156c3.550781-6.5625 10.410156-10.652344 17.871094-10.652344h34.699219c7.464843 0 14.324218 4.089844 17.871093 10.652344l12.1875 22.535156v-28.445312c0-26.183594-21.222656-47.410156-47.40625-47.410156zm0 0" fill="#57565c"/><path d="m126.003906 318.378906v33.933594c-7.375 2.785156-15.371094 4.3125-23.703125 4.3125-8.335937 0-16.328125-1.527344-23.703125-4.3125v-33.933594zm0 0" fill="#e5bd76"/><path d="m119.648438 256.070312h-34.699219c-7.460938 0-14.320313 4.089844-17.871094 10.652344l-12.183594 22.535156c0 26.179688 21.222657 47.40625 47.40625 47.40625 26.179688 0 47.40625-21.226562 47.40625-47.40625l-12.1875-22.535156c-3.546875-6.5625-10.40625-10.652344-17.871093-10.652344zm0 0" fill="#ecce93"/><path d="m433.402344 318.378906v37.246094c0 13.09375-10.609375 23.703125-23.703125 23.703125s-23.703125-10.609375-23.703125-23.703125v-37.246094zm0 0" fill="#ecce93"/><path d="m287.1875 344.828125v49.011719c0 17.226562-13.960938 31.191406-31.1875 31.191406s-31.1875-13.964844-31.1875-31.191406v-49.011719zm0 0" fill="#ecce93"/><path d="m287.1875 344.828125v37.882813c-9.621094 3.953124-20.160156 6.140624-31.1875 6.140624s-21.566406-2.1875-31.1875-6.140624v-37.882813zm0 0" fill="#e5bd76"/><path d="m278.828125 262.84375h-45.65625c-9.816406 0-18.847656 5.378906-23.515625 14.015625l-16.035156 29.648437c0 34.453126 27.929687 62.378907 62.378906 62.378907s62.378906-27.925781 62.378906-62.378907l-16.035156-29.648437c-4.671875-8.632813-13.699219-14.015625-23.515625-14.015625zm0 0" fill="#ecce93"/><path d="m256 206.703125c-34.449219 0-62.378906 27.925781-62.378906 62.378906v37.425781l16.035156-29.648437c4.671875-8.632813 13.699219-14.015625 23.515625-14.015625h45.65625c9.816406 0 18.847656 5.378906 23.515625 14.015625l16.035156 29.648437v-37.425781c0-34.453125-27.929687-62.378906-62.378906-62.378906zm0 0" fill="#57565c"/><path d="m190.25 372.980469c4.328125 6.457031 6.863281 14.242187 6.863281 22.605469v114.917968h-85.832031v-64.085937c0-40.492188 32.9375-73.4375 73.429688-73.4375zm0 0" fill="#24b2d3"/><path d="m400.71875 446.417969v64.085937h-85.832031v-114.917968c0-8.363282 2.535156-16.148438 6.863281-22.605469h5.539062c40.492188 0 73.429688 32.945312 73.429688 73.4375zm0 0" fill="#fba61f"/><path d="m327.289062 392.945312h-40.101562v.890626c0 17.226562-13.960938 31.191406-31.1875 31.191406s-31.1875-13.964844-31.1875-31.191406v-.890626h-40.101562c-29.53125 0-53.46875 23.941407-53.46875 53.46875v64.085938h249.515624v-64.085938c0-29.527343-23.941406-53.46875-53.46875-53.46875zm0 0" fill="#a477bd"/><path d="m433.402344 318.378906v33.933594c-7.375 2.785156-15.367188 4.3125-23.703125 4.3125-8.332031 0-16.328125-1.527344-23.703125-4.3125v-33.933594zm0 0" fill="#e5bd76"/><path d="m427.050781 256.070312h-34.699219c-7.464843 0-14.324218 4.089844-17.871093 10.652344l-12.1875 22.535156c0 26.179688 21.222656 47.40625 47.40625 47.40625 26.183593 0 47.40625-21.226562 47.40625-47.40625l-12.183594-22.535156c-3.550781-6.5625-10.410156-10.652344-17.871094-10.652344zm0 0" fill="#ecce93"/><path d="m409.699219 213.402344c-26.183594 0-47.40625 21.226562-47.40625 47.410156v28.445312l12.1875-22.535156c3.546875-6.5625 10.410156-10.652344 17.871093-10.652344h34.699219c7.460938 0 14.320313 4.089844 17.871094 10.652344l12.183594 22.535156v-28.445312c0-26.183594-21.222657-47.410156-47.40625-47.410156zm0 0" fill="#57565c"/><path d="m128.25 7.484375h-119.765625v104.796875h39.921875l19.960938 35.929688 19.960937-35.929688h39.921875zm0 0" fill="#48c8ef"/><path d="m504.515625 7.484375h-119.765625v104.796875h39.921875l19.960937 35.929688 19.960938-35.929688h39.921875zm0 0" fill="#ffcb5a"/><path d="m355.804688 7.484375h-198.613282v104.796875h79.347656l19.960938 35.929688 19.960938-35.929688h79.34375zm0 0" fill="#a477bd"/><path d="m163.859375 469.582031h14.96875v40.921875h-14.96875zm0 0"/><path d="m333.171875 469.582031h14.96875v40.921875h-14.96875zm0 0"/><path d="m463.878906 347.464844h-22.988281v-13.074219c14.304687-9.917969 23.703125-26.445313 23.703125-45.132813v-28.445312c0-30.269531-24.625-54.894531-54.894531-54.894531-30.265625 0-54.890625 24.625-54.890625 54.894531v28.445312c0 18.6875 9.394531 35.214844 23.703125 45.132813v13.070313h-22.996094c-22.914063 0-42.367187 16.203124-47.042969 38h-13.796875v-20.804688c18.785157-12.535156 31.1875-33.917969 31.1875-58.148438v-37.425781c0-38.523437-31.339843-69.863281-69.863281-69.863281s-69.863281 31.339844-69.863281 69.863281v37.425781c0 24.230469 12.402343 45.609376 31.1875 58.148438v20.804688h-13.796875c-4.675782-21.796876-24.128906-38-47.042969-38h-22.996094v-13.070313c14.308594-9.917969 23.703125-26.445313 23.703125-45.132813v-28.445312c0-30.269531-24.625-54.894531-54.890625-54.894531-30.269531 0-54.894531 24.625-54.894531 54.894531v28.445312c0 18.6875 9.398438 35.214844 23.703125 45.132813v13.074219h-22.988281c-26.535156 0-48.121094 21.585937-48.121094 48.121094v114.917968h14.972656v-114.917968c0-18.28125 14.867188-33.152344 33.148438-33.152344h23.746094c3.117187 13.933594 15.574218 24.382812 30.433593 24.382812s27.316407-10.449218 30.433594-24.382812h23.75c14.664063 0 27.265625 9.628906 31.5625 23.027344h-3.335937c-33.609376 0-60.953126 27.34375-60.953126 60.953124v64.089844h14.972657v-64.089844c0-25.355468 20.625-45.980468 45.980469-45.980468h33.1875c3.140624 18.191406 19.023437 32.078125 38.101562 32.078125s34.960938-13.886719 38.101562-32.078125h33.1875c25.355469 0 45.980469 20.625 45.980469 45.980468v64.089844h14.972657v-64.089844c0-33.609374-27.34375-60.953124-60.953126-60.953124h-3.335937c4.296875-13.398438 16.902344-23.027344 31.5625-23.027344h23.75c3.117187 13.933594 15.574219 24.382812 30.433594 24.382812s27.316406-10.449218 30.433593-24.382812h23.746094c18.28125 0 33.148438 14.871094 33.148438 33.152344v114.917968h14.972656v-114.917968c0-26.535157-21.585938-48.121094-48.121094-48.121094zm-361.578125-126.574219c21.789063 0 39.542969 17.546875 39.90625 39.25-5.183593-7.203125-13.535156-11.554687-22.558593-11.554687h-34.699219c-9.019531 0-17.371094 4.355468-22.554688 11.554687.359375-21.703125 18.117188-39.25 39.90625-39.25zm16.21875 134.734375c0 8.945312-7.277343 16.21875-16.21875 16.21875-8.941406 0-16.21875-7.273438-16.21875-16.21875v-13.921875c5.128907 1.585937 10.574219 2.445313 16.21875 2.445313s11.089844-.859376 16.21875-2.445313zm-16.21875-26.445312c-21.40625 0-38.925781-16.9375-39.875-38.113282l11.238281-20.78125c2.242188-4.152344 6.566407-6.730468 11.285157-6.730468h34.699219c4.71875 0 9.046874 2.578124 11.289062 6.730468l11.238281 20.78125c-.949219 21.175782-18.46875 38.113282-39.875 38.113282zm98.804688-60.097657c0-30.269531 24.625-54.894531 54.894531-54.894531s54.894531 24.625 54.894531 54.894531v7.851563l-1.96875-3.632813c-5.984375-11.066406-17.515625-17.941406-30.097656-17.941406h-45.65625c-12.582031 0-24.113281 6.875-30.101563 17.941406l-1.964843 3.632813zm78.597656 124.753907c0 13.074218-10.632813 23.707031-23.703125 23.707031s-23.703125-10.632813-23.703125-23.707031v-21.609376c7.40625 2.679688 15.386719 4.144532 23.703125 4.144532s16.296875-1.464844 23.703125-4.144532zm-23.703125-32.433594c-29.660156 0-53.886719-23.652344-54.847656-53.082032l15.089844-27.898437c3.363281-6.226563 9.851562-10.09375 16.929687-10.09375h45.65625c7.078125 0 13.566406 3.871094 16.929687 10.09375l15.089844 27.898437c-.960937 29.429688-25.1875 53.082032-54.847656 53.082032zm153.699219-140.511719c21.789062 0 39.546875 17.546875 39.90625 39.25-5.183594-7.203125-13.535157-11.554687-22.554688-11.554687h-34.699219c-9.023437 0-17.375 4.355468-22.558593 11.554687.363281-21.703125 18.117187-39.25 39.90625-39.25zm16.21875 134.734375c0 8.945312-7.277344 16.21875-16.21875 16.21875-8.941407 0-16.21875-7.273438-16.21875-16.21875v-13.921875c5.128906 1.585937 10.574219 2.445313 16.21875 2.445313s11.089843-.859376 16.21875-2.445313zm-16.21875-26.445312c-21.40625 0-38.925781-16.9375-39.875-38.113282l11.238281-20.78125c2.246094-4.152344 6.570312-6.730468 11.289062-6.730468h34.699219c4.71875 0 9.042969 2.578124 11.285157 6.730468l11.238281 20.78125c-.949219 21.175782-18.46875 38.113282-39.875 38.113282zm0 0"/><path d="m466.554688 413.191406h14.96875v97.3125h-14.96875zm0 0"/><path d="m30.476562 413.191406h14.96875v97.3125h-14.96875zm0 0"/><path d="m68.367188 163.625 24.363281-43.859375h43.003906v-119.765625h-134.734375v119.765625h43zm-52.398438-148.652344h104.796875v89.824219h-36.84375l-15.554687 28-15.558594-28h-36.839844zm0 0"/><path d="m377.261719 0v119.765625h43.003906l24.367187 43.859375 24.363282-43.859375h43.003906v-119.765625zm119.765625 104.796875h-36.839844l-15.554688 28-15.558593-28h-36.839844v-89.824219h104.792969zm0 0"/><path d="m256.5 163.625 24.363281-43.859375h82.425781v-119.765625h-213.582031v119.765625h82.425781zm-91.820312-148.652344h183.640624v89.824219h-76.265624l-15.554688 28-15.558594-28h-76.261718zm0 0"/><g fill="#fff"><path d="m103.296875 54.894531h-39.921875v-14.972656h39.921875zm-54.890625 0h-14.972656v-14.972656h14.972656zm0 0"/><path d="m103.296875 84.835938h-14.96875v-14.972657h14.96875zm-29.941406 0h-39.921875v-14.972657h39.921875zm0 0"/><path d="m479.5625 54.894531h-39.921875v-14.972656h39.921875zm-54.890625 0h-14.972656v-14.972656h14.972656zm0 0"/><path d="m479.5625 84.835938h-14.96875v-14.972657h14.96875zm-29.941406 0h-39.921875v-14.972657h39.921875zm0 0"/><path d="m326.363281 49.902344h-24.953125v-14.96875h24.953125zm-39.921875 0h-14.972656v-14.96875h14.972656zm-29.941406 0h-69.863281v-14.96875h69.863281zm0 0"/><path d="m326.363281 80.84375h-14.972656v-14.972656h14.972656zm-29.941406 0h-54.894531v-14.972656h54.894531zm-69.863281 0h-39.921875v-14.972656h39.921875zm0 0"/></g></svg>